<?xml version="1.0" encoding="UTF-8" standalone="no"?>

<svg
	xmlns="http://www.w3.org/2000/svg" version="1.1"
	xmlns:freecad="http://www.freecadweb.org/wiki/index.php?title=Svg_Namespace"
	width="297mm"
	height="210mm"
	viewBox="0 0 297 210">
	<!-- Working space 10 10 287 200 -->
	<!-- Title block 107 162 287 200 -->
	<g>
		<rect
			id="drawing-border"
			style="fill:none;stroke:#000000;stroke-width:0.35;stroke-linecap:miter;stroke-miterlimit:4"
			width="277"
			height="190"
			x="10"
			y="10" />
			<!-- width-20, height-20 -->
		<g
			transform="translate(87,-65)">
			<!-- A4 Portrait based for other formats width-210, height-297 -->
			<!--        page       rect   translation
			               w    h    rw   rh   tx   ty
			        A4-P  210  297  180  277    0    0
			        A3-L  420  297  390  277  210    0
			        A2-L  594  420  564  400  384  123
			        A1-L  841  594  811  574  631  297
			        A0-L 1189  841 1159  821  979  544
			-->
			<g
				id="titleblock-structure"
				style="fill:none;stroke:#000000;stroke-width:0.35;stroke-linecap:miter;stroke-miterlimit:4">
				<rect width="180" height="38" x="20" y="227" />
				<path d="m 20,238 h 180" />
				<path d="m 80,227 v 11" />
				<path d="m 140,227 v 38" />
				<path d="m 160,227 v 11" />
				<path d="m 180,227 v 11" />
				<path d="m 140,254 h 60" />
				<path d="m 180,254 v 11" />
			</g>
			<g
				id="titleblock-text-non-editable"
				style="font-size:3px;text-anchor:start;fill:#000000;font-family:osifont"
				xml:space="preserve">
				<text x="21" y="230.5">Created by:</text>
				<text x="81" y="230.5">Title:</text>
				<text x="21" y="241.5">Supplementary information:</text>
				<text x="141" y="230.5">Size:</text>
				<text x="161" y="230.5">Sheet:</text>
				<text x="181" y="230.5">Scale:</text>
				<text x="141" y="241.5">Part number:</text>
				<text x="141" y="249.5">Drawing no.:</text>
				<text x="141" y="257.5">Date:</text>
				<text x="181" y="257.5">Revision:</text>
			</g>
			<g
				id="titleblock-text-editable"
				style="font-size:5px;text-anchor:middle;fill:#000000;font-family:osifont"
				xml:space="preserve">
				<text freecad:editable="AUTHOR NAME" x="50" y="236"><tspan>Klafyvel</tspan></text>
				<text freecad:editable="DRAWING TITLE" x="110" y="236"><tspan>Trolley Z - 1</tspan></text>
				<text freecad:editable="SI-1" x="80" y="247"><tspan></tspan></text>
				<text freecad:editable="FreeCAD DRAWING" x="80" y="254"><tspan>Socle for the trolley and the milling.</tspan></text>
				<text freecad:editable="SI-3" x="80" y="261"><tspan></tspan></text>
				<text freecad:editable="FC-SI" x="150" y="236"><tspan>A4</tspan></text>
				<text freecad:editable="FC-SH" x="170" y="236"><tspan>1 / 4</tspan></text>
				<text freecad:editable="FC-SC" x="190" y="236"><tspan>1:1</tspan></text>
				<text freecad:editable="PN" x="180" y="244"><tspan>1</tspan></text>
				<text freecad:editable="DN" x="180" y="252"><tspan>1</tspan></text>
				<text freecad:editable="FC-DATE" x="160" y="263"><tspan>25/08/2017</tspan></text>
				<text freecad:editable="FC-REV" x="190" y="263"><tspan>REV A</tspan></text>
			</g>
			<!-- Set display:none to hide FreeCAD Logo -->
			<g
				style="display:inline"
				id="freecad-logo"
				transform="translate(128.5,254)"
				fill-rule="evenodd"
				stroke="#000"
				stroke-width="0.35"
				fill="none">
					<path d="m0.1524 0.15254v8.8549h1.9744v-3.4652h1.396v-1.3661h-1.396v-1.4745h3.4391v-2.5441l-5.4135-0.005z"/>
					<path d="m7.7927 3.4504-0.50715-0.176-0.48387-1.2366-0.76115 0.04-0.34718 1.2787-0.4859 0.23269-1.2119-0.53015-0.51188 0.56882 0.65892 1.1485-0.18006 0.50567-1.2366 0.48387 0.044064 0.76263 1.2787 0.34718 0.23269 0.4859-0.53421 1.2104 0.56882 0.51188 1.1485-0.65891 0.50973 0.18155 0.4798 1.2351 0.7667-0.04258 0.34311-1.2802 0.4859-0.23269 1.2145 0.5357 0.51188-0.56882-0.65891-1.1485 0.17748-0.51122 1.2351-0.4798-0.03851-0.76521-1.2802-0.34311-0.23269-0.4859 0.53163-1.216-0.56881-0.51184zm-0.5715 1.2244 0.23576 0.13679 0.20426 0.18519 0.16353 0.22101 0.11763 0.24572 0.06916 0.26489 0.01146 0.27146-0.03921 0.27139-0.08948 0.25764-0.14234 0.23834-0.17964 0.20167-0.22101 0.16353-0.24572 0.11763-0.26489 0.06916-0.27295 0.01553-0.2719-0.04-0.2576-0.089-0.2383-0.143-0.2002-0.183-0.165-0.217-0.1177-0.246-0.0676-0.269-0.0156-0.273 0.039206-0.2714 0.089484-0.25764 0.14085-0.23427 0.18113-0.20574 0.22101-0.16352 0.24572-0.11763 0.26895-0.06768 0.27147-0.01146 0.27139 0.03921 0.25764 0.08948z"/>
			</g>
		</g>
	</g>
<g id="ViewDimension010" transform="rotate(0.0,80.0,90.0) translate(80.0,90.0) scale(1.0,-1.0)"><path d="M 61.0 27.5 L 64.0 27.5 L 64.0 17.5 L 61.0 17.5" fill="none" stroke="#000000" stroke-width="0.35 px" style="stroke-width:0.35;stroke-miterlimit:4;stroke-dasharray:none" freecad:basepoint1="61.0 27.5" freecad:basepoint2="61.0 17.5" freecad:dimpoint="64.0 27.5"/>
<circle cx="64.0" cy="27.5" r="0.133333333333" fill="#000000" stroke="none" style="stroke-miterlimit:4;stroke-dasharray:none" freecad:skip="1"/>
<circle cx="64.0" cy="17.5" r="0.133333333333" fill="#000000" stroke="none" style="stroke-miterlimit:4;stroke-dasharray:none" freecad:skip="1"/>
<text fill="#000000" font-size="6.0" style="text-anchor:middle;text-align:center;font-family:" transform="rotate(-90.0,65.0,22.5) translate(65.0,22.5) scale(1,-1) " freecad:skip="1">
10,00 mm</text>
</g>


<g id="ViewDimension009" transform="rotate(0.0,80.0,90.0) translate(80.0,90.0) scale(1.0,-1.0)"><path d="M 50.0 41.7 L 50.0 42.0 L 60.0 42.0 L 60.0 41.7" fill="none" stroke="#000000" stroke-width="0.35 px" style="stroke-width:0.35;stroke-miterlimit:4;stroke-dasharray:none" freecad:basepoint1="50.0 41.7" freecad:basepoint2="60.0 41.7" freecad:dimpoint="50.0 42.0"/>
<circle cx="50.0" cy="42.0" r="0.133333333333" fill="#000000" stroke="none" style="stroke-miterlimit:4;stroke-dasharray:none" freecad:skip="1"/>
<circle cx="60.0" cy="42.0" r="0.133333333333" fill="#000000" stroke="none" style="stroke-miterlimit:4;stroke-dasharray:none" freecad:skip="1"/>
<text fill="#000000" font-size="6.0" style="text-anchor:middle;text-align:center;font-family:" transform="rotate(-0.0,55.0,43.0) translate(55.0,43.0) scale(1,-1) " freecad:skip="1">
10,00 mm</text>
</g>


<g id="ViewDimension007" transform="rotate(0.0,80.0,90.0) translate(80.0,90.0) scale(1.0,-1.0)"><path d="M 30.0 9.0 L 40.0 9.0 L 40.0 -9.0 L 30.0 -9.0" fill="none" stroke="#000000" stroke-width="0.35 px" style="stroke-width:0.35;stroke-miterlimit:4;stroke-dasharray:none" freecad:basepoint1="30.0 9.0" freecad:basepoint2="30.0 -9.0" freecad:dimpoint="40.0 9.0"/>
<circle cx="40.0" cy="9.0" r="0.133333333333" fill="#000000" stroke="none" style="stroke-miterlimit:4;stroke-dasharray:none" freecad:skip="1"/>
<circle cx="40.0" cy="-9.0" r="0.133333333333" fill="#000000" stroke="none" style="stroke-miterlimit:4;stroke-dasharray:none" freecad:skip="1"/>
<text fill="#000000" font-size="6.0" style="text-anchor:middle;text-align:center;font-family:" transform="rotate(-90.0,41.0,0.0) translate(41.0,0.0) scale(1,-1) " freecad:skip="1">
18,00 mm</text>
</g>


<g id="ViewDimension008" transform="rotate(0.0,80.0,90.0) translate(80.0,90.0) scale(1.0,-1.0)"><path d="M -4.069083937e-15 1.431681633 L -3.24907933674e-14 11.431681633 L 25.0 11.431681633 L 25.0 1.431681633" fill="none" stroke="#000000" stroke-width="0.35 px" style="stroke-width:0.35;stroke-miterlimit:4;stroke-dasharray:none" freecad:basepoint1="-4.069083937e-15 1.431681633" freecad:basepoint2="25.0 1.431681633" freecad:dimpoint="-3.24907933674e-14 11.431681633"/>
<circle cx="-3.24907933674e-14" cy="11.431681633" r="0.133333333333" fill="#000000" stroke="none" style="stroke-miterlimit:4;stroke-dasharray:none" freecad:skip="1"/>
<circle cx="25.0" cy="11.431681633" r="0.133333333333" fill="#000000" stroke="none" style="stroke-miterlimit:4;stroke-dasharray:none" freecad:skip="1"/>
<text fill="#000000" font-size="6.0" style="text-anchor:middle;text-align:center;font-family:" transform="rotate(0.0,12.5,12.431681633) translate(12.5,12.431681633) scale(1,-1) " freecad:skip="1">
25,00 mm</text>
</g>


<g id="ViewDimension006" transform="rotate(0.0,80.0,90.0) translate(80.0,90.0) scale(1.0,-1.0)"><path d="M -3.0 -37.5 L -9.0 -37.5 L -9.0 37.5 L -3.0 37.5" fill="none" stroke="#000000" stroke-width="0.35 px" style="stroke-width:0.35;stroke-miterlimit:4;stroke-dasharray:none" freecad:basepoint1="-3.0 -37.5" freecad:basepoint2="-3.0 37.5" freecad:dimpoint="-9.0 -37.5"/>
<circle cx="-9.0" cy="-37.5" r="0.133333333333" fill="#000000" stroke="none" style="stroke-miterlimit:4;stroke-dasharray:none" freecad:skip="1"/>
<circle cx="-9.0" cy="37.5" r="0.133333333333" fill="#000000" stroke="none" style="stroke-miterlimit:4;stroke-dasharray:none" freecad:skip="1"/>
<text fill="#000000" font-size="6.0" style="text-anchor:middle;text-align:center;font-family:" transform="rotate(90.0,-10.0,-7.1054273576e-14) translate(-10.0,-7.1054273576e-14) scale(1,-1) " freecad:skip="1">
75,00 mm</text>
</g>


<g id="ViewDimension003" transform="rotate(0.0,80.0,90.0) translate(80.0,90.0) scale(1.0,-1.0)"><path d="M 50.0 37.5 L 51.5154647827 37.5 L 51.5154647827 17.5 L 50.0 17.5" fill="none" stroke="#000000" stroke-width="0.35 px" style="stroke-width:0.35;stroke-miterlimit:4;stroke-dasharray:none" freecad:basepoint1="50.0 37.5" freecad:basepoint2="50.0 17.5" freecad:dimpoint="51.5154647827 37.5"/>
<circle cx="51.5154647827" cy="37.5" r="0.133333333333" fill="#000000" stroke="none" style="stroke-miterlimit:4;stroke-dasharray:none" freecad:skip="1"/>
<circle cx="51.5154647827" cy="17.5" r="0.133333333333" fill="#000000" stroke="none" style="stroke-miterlimit:4;stroke-dasharray:none" freecad:skip="1"/>
<text fill="#000000" font-size="6.0" style="text-anchor:middle;text-align:center;font-family:" transform="rotate(-90.0,52.5154647827,27.5) translate(52.5154647827,27.5) scale(1,-1) " freecad:skip="1">
20,00 mm</text>
</g>


<g id="ViewDimension001" transform="rotate(0.0,80.0,90.0) translate(80.0,90.0) scale(1.0,-1.0)"><path d="M 60.0 27.5 L 60.0 42.0 L 110.0 42.0 L 110.0 27.5" fill="none" stroke="#000000" stroke-width="0.35 px" style="stroke-width:0.35;stroke-miterlimit:4;stroke-dasharray:none" freecad:basepoint1="60.0 27.5" freecad:basepoint2="110.0 27.5" freecad:dimpoint="60.0 42.0"/>
<circle cx="60.0" cy="42.0" r="0.133333333333" fill="#000000" stroke="none" style="stroke-miterlimit:4;stroke-dasharray:none" freecad:skip="1"/>
<circle cx="110.0" cy="42.0" r="0.133333333333" fill="#000000" stroke="none" style="stroke-miterlimit:4;stroke-dasharray:none" freecad:skip="1"/>
<text fill="#000000" font-size="6.0" style="text-anchor:middle;text-align:center;font-family:" transform="rotate(-0.0,85.0,43.0) translate(85.0,43.0) scale(1,-1) " freecad:skip="1">
50,00 mm</text>
</g>


<g id="ViewDimension" transform="rotate(0.0,80.0,90.0) translate(80.0,90.0) scale(1.0,-1.0)"><path d="M 110.0 38.0 L 110.0 42.0 L 150.0 42.0 L 150.0 38.0" fill="none" stroke="#000000" stroke-width="0.35 px" style="stroke-width:0.35;stroke-miterlimit:4;stroke-dasharray:none" freecad:basepoint1="110.0 38.0" freecad:basepoint2="150.0 38.0" freecad:dimpoint="110.0 42.0"/>
<circle cx="110.0" cy="42.0" r="0.266666666667" fill="#000000" stroke="none" style="stroke-miterlimit:4;stroke-dasharray:none" freecad:skip="1"/>
<circle cx="150.0" cy="42.0" r="0.266666666667" fill="#000000" stroke="none" style="stroke-miterlimit:4;stroke-dasharray:none" freecad:skip="1"/>
<text fill="#000000" font-size="6.0" style="text-anchor:middle;text-align:center;font-family:" transform="rotate(-0.0,130.0,43.0) translate(130.0,43.0) scale(1,-1) " freecad:skip="1">
40,00 mm</text>
</g>


<g id="ViewDimension002" transform="rotate(0.0,80.0,90.0) translate(80.0,90.0) scale(1.0,-1.0)"><path d="M 0.0 39.0 L 0.0 42.0 L 50.0 42.0 L 50.0 39.0" fill="none" stroke="#000000" stroke-width="0.35 px" style="stroke-width:0.35;stroke-miterlimit:4;stroke-dasharray:none" freecad:basepoint1="0.0 39.0" freecad:basepoint2="50.0 39.0" freecad:dimpoint="0.0 42.0"/>
<circle cx="0.0" cy="42.0" r="0.133333333333" fill="#000000" stroke="none" style="stroke-miterlimit:4;stroke-dasharray:none" freecad:skip="1"/>
<circle cx="50.0" cy="42.0" r="0.133333333333" fill="#000000" stroke="none" style="stroke-miterlimit:4;stroke-dasharray:none" freecad:skip="1"/>
<text fill="#000000" font-size="6.0" style="text-anchor:middle;text-align:center;font-family:" transform="rotate(-0.0,25.0,43.0) translate(25.0,43.0) scale(1,-1) " freecad:skip="1">
50,00 mm</text>
</g>


<g id="ViewShape2DView" transform="rotate(0.0,80.0,90.0) translate(80.0,90.0) scale(1.0,-1.0)"><path id="Shape2DView_nwe0000"  d="M 0.0 -37.5 L 0.0 37.5 " stroke="#191919" stroke-width="0.35 px" style="stroke-width:0.35;stroke-miterlimit:4;stroke-dasharray:none;fill:none;fill-rule: evenodd "/>
<path id="Shape2DView_nwe0001"  d="M 50.0 -37.5 L 0.0 -37.5 " stroke="#191919" stroke-width="0.35 px" style="stroke-width:0.35;stroke-miterlimit:4;stroke-dasharray:none;fill:none;fill-rule: evenodd "/>
<path id="Shape2DView_nwe0002"  d="M 0.0 37.5 L 50.0 37.5 " stroke="#191919" stroke-width="0.35 px" style="stroke-width:0.35;stroke-miterlimit:4;stroke-dasharray:none;fill:none;fill-rule: evenodd "/>
<path id="Shape2DView_nwe0003"  d="M 50.0 -17.5 L 50.0 -37.5 " stroke="#191919" stroke-width="0.35 px" style="stroke-width:0.35;stroke-miterlimit:4;stroke-dasharray:none;fill:none;fill-rule: evenodd "/>
<path id="Shape2DView_nwe0004"  d="M 50.0 37.5 L 50.0 17.5 " stroke="#191919" stroke-width="0.35 px" style="stroke-width:0.35;stroke-miterlimit:4;stroke-dasharray:none;fill:none;fill-rule: evenodd "/>
<path id="Shape2DView_nwe0005"  d="M 60.0 -17.5 L 50.0 -17.5 " stroke="#191919" stroke-width="0.35 px" style="stroke-width:0.35;stroke-miterlimit:4;stroke-dasharray:none;fill:none;fill-rule: evenodd "/>
<path id="Shape2DView_nwe0006"  d="M 50.0 17.5 L 60.0 17.5 " stroke="#191919" stroke-width="0.35 px" style="stroke-width:0.35;stroke-miterlimit:4;stroke-dasharray:none;fill:none;fill-rule: evenodd "/>
<path id="Shape2DView_nwe0007"  d="M 60.0 -27.5 L 60.0 -17.5 " stroke="#191919" stroke-width="0.35 px" style="stroke-width:0.35;stroke-miterlimit:4;stroke-dasharray:none;fill:none;fill-rule: evenodd "/>
<path id="Shape2DView_nwe0008"  d="M 60.0 17.5 L 60.0 27.5 " stroke="#191919" stroke-width="0.35 px" style="stroke-width:0.35;stroke-miterlimit:4;stroke-dasharray:none;fill:none;fill-rule: evenodd "/>
<path id="Shape2DView_nwe0009"  d="M 110.0 -27.5 L 60.0 -27.5 " stroke="#191919" stroke-width="0.35 px" style="stroke-width:0.35;stroke-miterlimit:4;stroke-dasharray:none;fill:none;fill-rule: evenodd "/>
<path id="Shape2DView_nwe0010"  d="M 60.0 27.5 L 110.0 27.5 " stroke="#191919" stroke-width="0.35 px" style="stroke-width:0.35;stroke-miterlimit:4;stroke-dasharray:none;fill:none;fill-rule: evenodd "/>
<path id="Shape2DView_nwe0011"  d="M 110.0 -37.5 L 110.0 -27.5 " stroke="#191919" stroke-width="0.35 px" style="stroke-width:0.35;stroke-miterlimit:4;stroke-dasharray:none;fill:none;fill-rule: evenodd "/>
<path id="Shape2DView_nwe0012"  d="M 110.0 27.5 L 110.0 37.5 " stroke="#191919" stroke-width="0.35 px" style="stroke-width:0.35;stroke-miterlimit:4;stroke-dasharray:none;fill:none;fill-rule: evenodd "/>
<path id="Shape2DView_nwe0013"  d="M 150.0 -37.5 L 110.0 -37.5 " stroke="#191919" stroke-width="0.35 px" style="stroke-width:0.35;stroke-miterlimit:4;stroke-dasharray:none;fill:none;fill-rule: evenodd "/>
<path id="Shape2DView_nwe0014"  d="M 110.0 37.5 L 150.0 37.5 " stroke="#191919" stroke-width="0.35 px" style="stroke-width:0.35;stroke-miterlimit:4;stroke-dasharray:none;fill:none;fill-rule: evenodd "/>
<path id="Shape2DView_nwe0015"  d="M 150.0 37.5 L 150.0 -37.5 " stroke="#191919" stroke-width="0.35 px" style="stroke-width:0.35;stroke-miterlimit:4;stroke-dasharray:none;fill:none;fill-rule: evenodd "/>
<circle cx="25.0" cy="0.0" r="9.0" stroke="#191919" stroke-width="0.35 px" style="stroke-width:0.35;stroke-miterlimit:4;stroke-dasharray:none;fill:none"/>
</g>


</svg>

