<?xml version="1.0" encoding="UTF-8" standalone="no"?>

<svg
	xmlns="http://www.w3.org/2000/svg" version="1.1"
	xmlns:freecad="http://www.freecadweb.org/wiki/index.php?title=Svg_Namespace"
	width="297mm"
	height="210mm"
	viewBox="0 0 297 210">
	<!-- Working space 10 10 287 200 -->
	<!-- Title block 107 162 287 200 -->
	<g>
		<rect
			id="drawing-border"
			style="fill:none;stroke:#000000;stroke-width:0.35;stroke-linecap:miter;stroke-miterlimit:4"
			width="277"
			height="190"
			x="10"
			y="10" />
			<!-- width-20, height-20 -->
		<g
			transform="translate(87,-65)">
			<!-- A4 Portrait based for other formats width-210, height-297 -->
			<!--        page       rect   translation
			               w    h    rw   rh   tx   ty
			        A4-P  210  297  180  277    0    0
			        A3-L  420  297  390  277  210    0
			        A2-L  594  420  564  400  384  123
			        A1-L  841  594  811  574  631  297
			        A0-L 1189  841 1159  821  979  544
			-->
			<g
				id="titleblock-structure"
				style="fill:none;stroke:#000000;stroke-width:0.35;stroke-linecap:miter;stroke-miterlimit:4">
				<rect width="180" height="38" x="20" y="227" />
				<path d="m 20,238 h 180" />
				<path d="m 80,227 v 11" />
				<path d="m 140,227 v 38" />
				<path d="m 160,227 v 11" />
				<path d="m 180,227 v 11" />
				<path d="m 140,254 h 60" />
				<path d="m 180,254 v 11" />
			</g>
			<g
				id="titleblock-text-non-editable"
				style="font-size:3px;text-anchor:start;fill:#000000;font-family:osifont"
				xml:space="preserve">
				<text x="21" y="230.5">Created by:</text>
				<text x="81" y="230.5">Title:</text>
				<text x="21" y="241.5">Supplementary information:</text>
				<text x="141" y="230.5">Size:</text>
				<text x="161" y="230.5">Sheet:</text>
				<text x="181" y="230.5">Scale:</text>
				<text x="141" y="241.5">Part number:</text>
				<text x="141" y="249.5">Drawing no.:</text>
				<text x="141" y="257.5">Date:</text>
				<text x="181" y="257.5">Revision:</text>
			</g>
			<g
				id="titleblock-text-editable"
				style="font-size:5px;text-anchor:middle;fill:#000000;font-family:osifont"
				xml:space="preserve">
				<text freecad:editable="AUTHOR NAME" x="50" y="236"><tspan>Klafyvel</tspan></text>
				<text freecad:editable="DRAWING TITLE" x="110" y="236"><tspan>Trolley Z - 3</tspan></text>
				<text freecad:editable="SI-1" x="80" y="247"><tspan></tspan></text>
				<text freecad:editable="FreeCAD DRAWING" x="80" y="254"><tspan>Side of the trolley, where the rail takes place.</tspan></text>
				<text freecad:editable="SI-3" x="80" y="261"><tspan></tspan></text>
				<text freecad:editable="FC-SI" x="150" y="236"><tspan>A4</tspan></text>
				<text freecad:editable="FC-SH" x="170" y="236"><tspan>3 / 4</tspan></text>
				<text freecad:editable="FC-SC" x="190" y="236"><tspan>1:1</tspan></text>
				<text freecad:editable="PN" x="180" y="244"><tspan>3</tspan></text>
				<text freecad:editable="DN" x="180" y="252"><tspan>3</tspan></text>
				<text freecad:editable="FC-DATE" x="160" y="263"><tspan>25/08/2017</tspan></text>
				<text freecad:editable="FC-REV" x="190" y="263"><tspan>REV A</tspan></text>
			</g>
			<!-- Set display:none to hide FreeCAD Logo -->
			<g
				style="display:inline"
				id="freecad-logo"
				transform="translate(128.5,254)"
				fill-rule="evenodd"
				stroke="#000"
				stroke-width="0.35"
				fill="none">
					<path d="m0.1524 0.15254v8.8549h1.9744v-3.4652h1.396v-1.3661h-1.396v-1.4745h3.4391v-2.5441l-5.4135-0.005z"/>
					<path d="m7.7927 3.4504-0.50715-0.176-0.48387-1.2366-0.76115 0.04-0.34718 1.2787-0.4859 0.23269-1.2119-0.53015-0.51188 0.56882 0.65892 1.1485-0.18006 0.50567-1.2366 0.48387 0.044064 0.76263 1.2787 0.34718 0.23269 0.4859-0.53421 1.2104 0.56882 0.51188 1.1485-0.65891 0.50973 0.18155 0.4798 1.2351 0.7667-0.04258 0.34311-1.2802 0.4859-0.23269 1.2145 0.5357 0.51188-0.56882-0.65891-1.1485 0.17748-0.51122 1.2351-0.4798-0.03851-0.76521-1.2802-0.34311-0.23269-0.4859 0.53163-1.216-0.56881-0.51184zm-0.5715 1.2244 0.23576 0.13679 0.20426 0.18519 0.16353 0.22101 0.11763 0.24572 0.06916 0.26489 0.01146 0.27146-0.03921 0.27139-0.08948 0.25764-0.14234 0.23834-0.17964 0.20167-0.22101 0.16353-0.24572 0.11763-0.26489 0.06916-0.27295 0.01553-0.2719-0.04-0.2576-0.089-0.2383-0.143-0.2002-0.183-0.165-0.217-0.1177-0.246-0.0676-0.269-0.0156-0.273 0.039206-0.2714 0.089484-0.25764 0.14085-0.23427 0.18113-0.20574 0.22101-0.16352 0.24572-0.11763 0.26895-0.06768 0.27147-0.01146 0.27139 0.03921 0.25764 0.08948z"/>
			</g>
		</g>
	</g>
<g id="ViewGroupe001" transform="rotate(0.0,30.0,40.0) translate(30.0,40.0) scale(1.0,-1.0)"><path id="Shape2DView_nwe0000"  d="M 0.0 0.0 L 50.0 0.0 " stroke="#000000" stroke-width="0.35 px" style="stroke-width:0.35;stroke-miterlimit:4;stroke-dasharray:none;fill:none;fill-rule: evenodd "/>
<path id="Shape2DView_nwe0001"  d="M 0.0 -50.0 L 0.0 -46.0 " stroke="#000000" stroke-width="0.35 px" style="stroke-width:0.35;stroke-miterlimit:4;stroke-dasharray:none;fill:none;fill-rule: evenodd "/>
<path id="Shape2DView_nwe0002"  d="M -7.15255645378e-07 -34.0 L -7.15255645378e-07 -46.0 " stroke="#000000" stroke-width="0.35 px" style="stroke-width:0.35;stroke-miterlimit:4;stroke-dasharray:none;fill:none;fill-rule: evenodd "/>
<path id="Shape2DView_nwe0003"  d="M 0.0 -34.0 L 0.0 0.0 " stroke="#000000" stroke-width="0.35 px" style="stroke-width:0.35;stroke-miterlimit:4;stroke-dasharray:none;fill:none;fill-rule: evenodd "/>
<path id="Shape2DView_nwe0004"  d="M 50.0 0.0 L 50.0 10.0 " stroke="#000000" stroke-width="0.35 px" style="stroke-width:0.35;stroke-miterlimit:4;stroke-dasharray:none;fill:none;fill-rule: evenodd "/>
<path id="Shape2DView_nwe0005"  d="M 0.0 -34.0 L 250.0 -34.0 " stroke="#000000" stroke-width="0.35 px" style="stroke-width:0.35;stroke-miterlimit:4;stroke-dasharray:none;fill:none;fill-rule: evenodd "/>
<path id="Shape2DView_nwe0006"  d="M 250.0 6.3329276216e-16 L 250.0 -34.0 " stroke="#000000" stroke-width="0.35 px" style="stroke-width:0.35;stroke-miterlimit:4;stroke-dasharray:none;fill:none;fill-rule: evenodd "/>
<path id="Shape2DView_nwe0007"  d="M 200.0 6.3329276216e-16 L 250.0 6.3329276216e-16 " stroke="#000000" stroke-width="0.35 px" style="stroke-width:0.35;stroke-miterlimit:4;stroke-dasharray:none;fill:none;fill-rule: evenodd "/>
<path id="Shape2DView_nwe0008"  d="M 200.0 10.0 L 200.0 0.0 " stroke="#000000" stroke-width="0.35 px" style="stroke-width:0.35;stroke-miterlimit:4;stroke-dasharray:none;fill:none;fill-rule: evenodd "/>
<path id="Shape2DView_nwe0009"  d="M 150.0 10.0 L 200.0 10.0 " stroke="#000000" stroke-width="0.35 px" style="stroke-width:0.35;stroke-miterlimit:4;stroke-dasharray:none;fill:none;fill-rule: evenodd "/>
<path id="Shape2DView_nwe0010"  d="M 150.0 0.0 L 150.0 10.0 " stroke="#000000" stroke-width="0.35 px" style="stroke-width:0.35;stroke-miterlimit:4;stroke-dasharray:none;fill:none;fill-rule: evenodd "/>
<path id="Shape2DView_nwe0011"  d="M 100.0 0.0 L 150.0 0.0 " stroke="#000000" stroke-width="0.35 px" style="stroke-width:0.35;stroke-miterlimit:4;stroke-dasharray:none;fill:none;fill-rule: evenodd "/>
<path id="Shape2DView_nwe0012"  d="M 100.0 10.0 L 100.0 0.0 " stroke="#000000" stroke-width="0.35 px" style="stroke-width:0.35;stroke-miterlimit:4;stroke-dasharray:none;fill:none;fill-rule: evenodd "/>
<path id="Shape2DView_nwe0013"  d="M 50.0 10.0 L 100.0 10.0 " stroke="#000000" stroke-width="0.35 px" style="stroke-width:0.35;stroke-miterlimit:4;stroke-dasharray:none;fill:none;fill-rule: evenodd "/>
<path id="Shape2DView_nwe0014"  d="M 240.0 -50.0 L 0.0 -50.0 " stroke="#000000" stroke-width="0.35 px" style="stroke-width:0.35;stroke-miterlimit:4;stroke-dasharray:none;fill:none;fill-rule: evenodd "/>
<path id="Shape2DView_nwe0015"  d="M 240.0 -46.0 L 240.0 -50.0 " stroke="#000000" stroke-width="0.35 px" style="stroke-width:0.35;stroke-miterlimit:4;stroke-dasharray:none;fill:none;fill-rule: evenodd "/>
<path id="Shape2DView_nwe0016"  d="M 0.0 -46.0 L 240.0 -46.0 " stroke="#000000" stroke-width="0.35 px" style="stroke-width:0.35;stroke-miterlimit:4;stroke-dasharray:none;fill:none;fill-rule: evenodd "/>
<path id="Shape2DView_nwe0017"  d="M -7.15255645378e-07 -46.0 L 239.999999285 -46.0 " stroke="#000000" stroke-width="0.35 px" style="stroke-width:0.35;stroke-miterlimit:4;stroke-dasharray:none;fill:none;fill-rule: evenodd "/>
<path id="Shape2DView_nwe0018"  d="M 239.999999285 -40.0 L 239.999999285 -46.0 " stroke="#000000" stroke-width="0.35 px" style="stroke-width:0.35;stroke-miterlimit:4;stroke-dasharray:none;fill:none;fill-rule: evenodd "/>
<path id="Shape2DView_nwe0019"  d="M 249.999999285 -40.0 L 239.999999285 -40.0 " stroke="#000000" stroke-width="0.35 px" style="stroke-width:0.35;stroke-miterlimit:4;stroke-dasharray:none;fill:none;fill-rule: evenodd "/>
<path id="Shape2DView_nwe0020"  d="M 249.999999285 -34.0 L 249.999999285 -40.0 " stroke="#000000" stroke-width="0.35 px" style="stroke-width:0.35;stroke-miterlimit:4;stroke-dasharray:none;fill:none;fill-rule: evenodd "/>
<path id="Shape2DView_nwe0021"  d="M -7.15255645378e-07 -34.0 L 0.0 -34.0 " stroke="#000000" stroke-width="0.35 px" style="stroke-width:0.35;stroke-miterlimit:4;stroke-dasharray:none;fill:none;fill-rule: evenodd "/>
<path d="M 0.0 12.0 L 0.0 19.0 L 50.0 19.0 L 50.0 12.0" fill="none" stroke="#000000" stroke-width="0.35 px" style="stroke-width:0.35;stroke-miterlimit:4;stroke-dasharray:none" freecad:basepoint1="0.0 12.0" freecad:basepoint2="50.0 12.0" freecad:dimpoint="0.0 19.0"/>
<circle cx="0.0" cy="19.0" r="0.133333333333" fill="#000000" stroke="none" style="stroke-miterlimit:4;stroke-dasharray:none" freecad:skip="1"/>
<circle cx="50.0" cy="19.0" r="0.133333333333" fill="#000000" stroke="none" style="stroke-miterlimit:4;stroke-dasharray:none" freecad:skip="1"/>
<text fill="#000000" font-size="6.0" style="text-anchor:middle;text-align:center;font-family:" transform="rotate(-0.0,25.0,20.0) translate(25.0,20.0) scale(1,-1) " freecad:skip="1">
50,00 mm</text>
<path d="M 50.0 12.0 L 50.0 19.0 L 100.0 19.0 L 100.0 12.0" fill="none" stroke="#000000" stroke-width="0.35 px" style="stroke-width:0.35;stroke-miterlimit:4;stroke-dasharray:none" freecad:basepoint1="50.0 12.0" freecad:basepoint2="100.0 12.0" freecad:dimpoint="50.0 19.0"/>
<circle cx="50.0" cy="19.0" r="0.133333333333" fill="#000000" stroke="none" style="stroke-miterlimit:4;stroke-dasharray:none" freecad:skip="1"/>
<circle cx="100.0" cy="19.0" r="0.133333333333" fill="#000000" stroke="none" style="stroke-miterlimit:4;stroke-dasharray:none" freecad:skip="1"/>
<text fill="#000000" font-size="6.0" style="text-anchor:middle;text-align:center;font-family:" transform="rotate(-0.0,75.0,20.0) translate(75.0,20.0) scale(1,-1) " freecad:skip="1">
50,00 mm</text>
<path d="M -7.0 -50.0 L -14.0 -50.0 L -14.0 0.0 L -7.0 0.0" fill="none" stroke="#000000" stroke-width="0.35 px" style="stroke-width:0.35;stroke-miterlimit:4;stroke-dasharray:none" freecad:basepoint1="-7.0 -50.0" freecad:basepoint2="-7.0 0.0" freecad:dimpoint="-14.0 -50.0"/>
<circle cx="-14.0" cy="-50.0" r="0.133333333333" fill="#000000" stroke="none" style="stroke-miterlimit:4;stroke-dasharray:none" freecad:skip="1"/>
<circle cx="-14.0" cy="0.0" r="0.133333333333" fill="#000000" stroke="none" style="stroke-miterlimit:4;stroke-dasharray:none" freecad:skip="1"/>
<text fill="#000000" font-size="6.0" style="text-anchor:middle;text-align:center;font-family:" transform="rotate(90.0,-15.0,-25.0) translate(-15.0,-25.0) scale(1,-1) " freecad:skip="1">
50,00 mm</text>
<path d="M 250.999999285 -39.9999992135 L 254.999999285 -39.9999989275 L 255.0 -49.9999989275 L 251.0 -49.9999992135" fill="none" stroke="#000000" stroke-width="0.35 px" style="stroke-width:0.35;stroke-miterlimit:4;stroke-dasharray:none" freecad:basepoint1="250.999999285 -39.9999992135" freecad:basepoint2="251.0 -49.9999992135" freecad:dimpoint="254.999999285 -39.9999989275"/>
<circle cx="254.999999285" cy="-39.9999989275" r="0.133333333333" fill="#000000" stroke="none" style="stroke-miterlimit:4;stroke-dasharray:none" freecad:skip="1"/>
<circle cx="255.0" cy="-49.9999989275" r="0.133333333333" fill="#000000" stroke="none" style="stroke-miterlimit:4;stroke-dasharray:none" freecad:skip="1"/>
<text fill="#000000" font-size="6.0" style="text-anchor:middle;text-align:center;font-family:" transform="rotate(-89.9999951703,255.999999642,-44.999998856) translate(255.999999642,-44.999998856) scale(1,-1) " freecad:skip="1">
10,00 mm</text>
<path d="M 249.999999285 -51.0 L 249.999999285 -57.0 L 239.999999285 -57.0 L 239.999999285 -51.0" fill="none" stroke="#000000" stroke-width="0.35 px" style="stroke-width:0.35;stroke-miterlimit:4;stroke-dasharray:none" freecad:basepoint1="249.999999285 -51.0" freecad:basepoint2="239.999999285 -51.0" freecad:dimpoint="249.999999285 -57.0"/>
<circle cx="249.999999285" cy="-57.0" r="0.133333333333" fill="#000000" stroke="none" style="stroke-miterlimit:4;stroke-dasharray:none" freecad:skip="1"/>
<circle cx="239.999999285" cy="-57.0" r="0.133333333333" fill="#000000" stroke="none" style="stroke-miterlimit:4;stroke-dasharray:none" freecad:skip="1"/>
<text fill="#000000" font-size="6.0" style="text-anchor:middle;text-align:center;font-family:" transform="rotate(-180.0,244.999999285,-58.0) translate(244.999999285,-58.0) scale(1,-1) " freecad:skip="1">
10,00 mm</text>
<path d="M -2.0 -46.0 L -9.0 -46.0 L -9.0 -34.0 L -2.0 -34.0" fill="none" stroke="#000000" stroke-width="0.35 px" style="stroke-width:0.35;stroke-miterlimit:4;stroke-dasharray:none" freecad:basepoint1="-2.0 -46.0" freecad:basepoint2="-2.0 -34.0" freecad:dimpoint="-9.0 -46.0"/>
<circle cx="-9.0" cy="-46.0" r="0.133333333333" fill="#000000" stroke="none" style="stroke-miterlimit:4;stroke-dasharray:none" freecad:skip="1"/>
<circle cx="-9.0" cy="-34.0" r="0.133333333333" fill="#000000" stroke="none" style="stroke-miterlimit:4;stroke-dasharray:none" freecad:skip="1"/>
<text fill="#000000" font-size="6.0" style="text-anchor:middle;text-align:center;font-family:" transform="rotate(90.0,-10.0,-40.0) translate(-10.0,-40.0) scale(1,-1) " freecad:skip="1">
12,00 mm</text>
</g>


<g id="ViewGroupe002" transform="rotate(0.0,30.0,150.0) translate(30.0,150.0) scale(1.0,-1.0)"><path id="Shape2DView001_nwe0000"  d="M 0.0 0.0 L 0.0 -10.0 " stroke="#000000" stroke-width="0.35 px" style="stroke-width:0.35;stroke-miterlimit:4;stroke-dasharray:none;fill:none;fill-rule: evenodd "/>
<path id="Shape2DView001_nwe0001"  d="M 0.0 6.66133814775e-14 L 0.0 -10.0 " stroke="#000000" stroke-width="0.35 px" style="stroke-width:0.35;stroke-miterlimit:4;stroke-dasharray:none;fill:none;fill-rule: evenodd "/>
<path id="Shape2DView001_nwe0002"  d="M 50.0 0.0 L 46.0 0.0 " stroke="#000000" stroke-width="0.35 px" style="stroke-width:0.35;stroke-miterlimit:4;stroke-dasharray:none;fill:none;fill-rule: evenodd "/>
<path id="Shape2DView001_nwe0003"  d="M 46.0 -6.0 L 46.0 0.0 " stroke="#000000" stroke-width="0.35 px" style="stroke-width:0.35;stroke-miterlimit:4;stroke-dasharray:none;fill:none;fill-rule: evenodd "/>
<path id="Shape2DView001_nwe0004"  d="M 34.0 -6.0 L 46.0 -6.0 " stroke="#000000" stroke-width="0.35 px" style="stroke-width:0.35;stroke-miterlimit:4;stroke-dasharray:none;fill:none;fill-rule: evenodd "/>
<path id="Shape2DView001_nwe0005"  d="M 34.0 0.0 L 34.0 -6.0 " stroke="#000000" stroke-width="0.35 px" style="stroke-width:0.35;stroke-miterlimit:4;stroke-dasharray:none;fill:none;fill-rule: evenodd "/>
<path id="Shape2DView001_nwe0006"  d="M 34.0 0.0 L 0.0 0.0 " stroke="#000000" stroke-width="0.35 px" style="stroke-width:0.35;stroke-miterlimit:4;stroke-dasharray:none;fill:none;fill-rule: evenodd "/>
<path id="Shape2DView001_nwe0007"  d="M 50.0 -10.0 L 0.0 -10.0 " stroke="#000000" stroke-width="0.35 px" style="stroke-width:0.35;stroke-miterlimit:4;stroke-dasharray:none;fill:none;fill-rule: evenodd "/>
<path id="Shape2DView001_nwe0008"  d="M 50.0 0.0 L 50.0 -10.0 " stroke="#000000" stroke-width="0.35 px" style="stroke-width:0.35;stroke-miterlimit:4;stroke-dasharray:none;fill:none;fill-rule: evenodd "/>
<path id="Shape2DView001_nwe0009"  d="M -10.0 6.66133814775e-14 L -10.0 -10.0 " stroke="#000000" stroke-width="0.35 px" style="stroke-width:0.35;stroke-miterlimit:4;stroke-dasharray:none;fill:none;fill-rule: evenodd "/>
<path id="Shape2DView001_nwe0010"  d="M 0.0 6.66133814775e-14 L -10.0 6.66133814775e-14 " stroke="#000000" stroke-width="0.35 px" style="stroke-width:0.35;stroke-miterlimit:4;stroke-dasharray:none;fill:none;fill-rule: evenodd "/>
<path id="Shape2DView001_nwe0011"  d="M 0.0 -10.0 L -10.0 -10.0 " stroke="#000000" stroke-width="0.35 px" style="stroke-width:0.35;stroke-miterlimit:4;stroke-dasharray:none;fill:none;fill-rule: evenodd "/>
<path id="Shape2DView001_nwe0012"  d="M 0.0 1.99840144433e-13 L -10.0 1.99840144433e-13 " stroke="#000000" stroke-width="0.35 px" style="stroke-width:0.35;stroke-miterlimit:4;stroke-dasharray:none;fill:none;fill-rule: evenodd "/>
<path d="M 34.0 0.53936195374 L 34.0 4.53936195374 L 46.0 4.53936195374 L 46.0 0.53936195374" fill="none" stroke="#000000" stroke-width="0.35 px" style="stroke-width:0.35;stroke-miterlimit:4;stroke-dasharray:none" freecad:basepoint1="34.0 0.53936195374" freecad:basepoint2="46.0 0.53936195374" freecad:dimpoint="34.0 4.53936195374"/>
<circle cx="34.0" cy="4.53936195374" r="0.133333333333" fill="#000000" stroke="none" style="stroke-miterlimit:4;stroke-dasharray:none" freecad:skip="1"/>
<circle cx="46.0" cy="4.53936195374" r="0.133333333333" fill="#000000" stroke="none" style="stroke-miterlimit:4;stroke-dasharray:none" freecad:skip="1"/>
<text fill="#000000" font-size="6.0" style="text-anchor:middle;text-align:center;font-family:" transform="rotate(-0.0,40.0,5.53936195374) translate(40.0,5.53936195374) scale(1,-1) " freecad:skip="1">
12,00 mm</text>
<path d="M 46.0 0.0 L 46.0 1.51807975769 L 50.0 1.51807975769 L 50.0 0.0" fill="none" stroke="#000000" stroke-width="0.35 px" style="stroke-width:0.35;stroke-miterlimit:4;stroke-dasharray:none" freecad:basepoint1="46.0 0.0" freecad:basepoint2="50.0 0.0" freecad:dimpoint="46.0 1.51807975769"/>
<circle cx="46.0" cy="1.51807975769" r="0.133333333333" fill="#000000" stroke="none" style="stroke-miterlimit:4;stroke-dasharray:none" freecad:skip="1"/>
<circle cx="50.0" cy="1.51807975769" r="0.133333333333" fill="#000000" stroke="none" style="stroke-miterlimit:4;stroke-dasharray:none" freecad:skip="1"/>
<text fill="#000000" font-size="6.0" style="text-anchor:middle;text-align:center;font-family:" transform="rotate(-0.0,48.0,2.51807975769) translate(48.0,2.51807975769) scale(1,-1) " freecad:skip="1">
4,00 mm</text>
<path d="M 33.0 -6.0 L 29.0 -6.0 L 29.0 0.0 L 33.0 0.0" fill="none" stroke="#000000" stroke-width="0.35 px" style="stroke-width:0.35;stroke-miterlimit:4;stroke-dasharray:none" freecad:basepoint1="33.0 -6.0" freecad:basepoint2="33.0 0.0" freecad:dimpoint="29.0 -6.0"/>
<circle cx="29.0" cy="-6.0" r="0.133333333333" fill="#000000" stroke="none" style="stroke-miterlimit:4;stroke-dasharray:none" freecad:skip="1"/>
<circle cx="29.0" cy="0.0" r="0.133333333333" fill="#000000" stroke="none" style="stroke-miterlimit:4;stroke-dasharray:none" freecad:skip="1"/>
<text fill="#000000" font-size="6.0" style="text-anchor:middle;text-align:center;font-family:" transform="rotate(90.0,28.0,-3.0) translate(28.0,-3.0) scale(1,-1) " freecad:skip="1">
6,00 mm</text>
</g>


<clipPath id="Clip"><rect x="15" y="145" width="30" height="20"/></clipPath>
<g clip-path="url(#Clip)">
</g>



<g transform="translate(15,135) rotate(0)">
<text id="Annotation"
 font-family="Sans"
 font-size="7"
 fill="#000000">
<tspan x="0" dy="1em">View from the bottom :</tspan>
</text>
</g>



</svg>

