<?xml version="1.0" encoding="UTF-8" standalone="no"?>

<svg
	xmlns="http://www.w3.org/2000/svg" version="1.1"
	xmlns:freecad="http://www.freecadweb.org/wiki/index.php?title=Svg_Namespace"
	width="297mm"
	height="210mm"
	viewBox="0 0 297 210">
	<!-- Working space 10 10 287 200 -->
	<!-- Title block 107 162 287 200 -->
	<g>
		<rect
			id="drawing-border"
			style="fill:none;stroke:#000000;stroke-width:0.35;stroke-linecap:miter;stroke-miterlimit:4"
			width="277"
			height="190"
			x="10"
			y="10" />
			<!-- width-20, height-20 -->
		<g
			transform="translate(87,-65)">
			<!-- A4 Portrait based for other formats width-210, height-297 -->
			<!--        page       rect   translation
			               w    h    rw   rh   tx   ty
			        A4-P  210  297  180  277    0    0
			        A3-L  420  297  390  277  210    0
			        A2-L  594  420  564  400  384  123
			        A1-L  841  594  811  574  631  297
			        A0-L 1189  841 1159  821  979  544
			-->
			<g
				id="titleblock-structure"
				style="fill:none;stroke:#000000;stroke-width:0.35;stroke-linecap:miter;stroke-miterlimit:4">
				<rect width="180" height="38" x="20" y="227" />
				<path d="m 20,238 h 180" />
				<path d="m 80,227 v 11" />
				<path d="m 140,227 v 38" />
				<path d="m 160,227 v 11" />
				<path d="m 180,227 v 11" />
				<path d="m 140,254 h 60" />
				<path d="m 180,254 v 11" />
			</g>
			<g
				id="titleblock-text-non-editable"
				style="font-size:3px;text-anchor:start;fill:#000000;font-family:osifont"
				xml:space="preserve">
				<text x="21" y="230.5">Created by:</text>
				<text x="81" y="230.5">Title:</text>
				<text x="21" y="241.5">Supplementary information:</text>
				<text x="141" y="230.5">Size:</text>
				<text x="161" y="230.5">Sheet:</text>
				<text x="181" y="230.5">Scale:</text>
				<text x="141" y="241.5">Part number:</text>
				<text x="141" y="249.5">Drawing no.:</text>
				<text x="141" y="257.5">Date:</text>
				<text x="181" y="257.5">Revision:</text>
			</g>
			<g
				id="titleblock-text-editable"
				style="font-size:5px;text-anchor:middle;fill:#000000;font-family:osifont"
				xml:space="preserve">
				<text freecad:editable="AUTHOR NAME" x="50" y="236"><tspan>Klafyvel</tspan></text>
				<text freecad:editable="DRAWING TITLE" x="110" y="236"><tspan>Trolley Z - 2</tspan></text>
				<text freecad:editable="SI-1" x="80" y="247"><tspan></tspan></text>
				<text freecad:editable="FreeCAD DRAWING" x="80" y="254"><tspan>Front face of the trolley</tspan></text>
				<text freecad:editable="SI-3" x="80" y="261"><tspan></tspan></text>
				<text freecad:editable="FC-SI" x="150" y="236"><tspan>A4</tspan></text>
				<text freecad:editable="FC-SH" x="170" y="236"><tspan>2 / 4</tspan></text>
				<text freecad:editable="FC-SC" x="190" y="236"><tspan>1:1</tspan></text>
				<text freecad:editable="PN" x="180" y="244"><tspan>2</tspan></text>
				<text freecad:editable="DN" x="180" y="252"><tspan>2</tspan></text>
				<text freecad:editable="FC-DATE" x="160" y="263"><tspan>25/08/2017</tspan></text>
				<text freecad:editable="FC-REV" x="190" y="263"><tspan>REV A</tspan></text>
			</g>
			<!-- Set display:none to hide FreeCAD Logo -->
			<g
				style="display:inline"
				id="freecad-logo"
				transform="translate(128.5,254)"
				fill-rule="evenodd"
				stroke="#000"
				stroke-width="0.35"
				fill="none">
					<path d="m0.1524 0.15254v8.8549h1.9744v-3.4652h1.396v-1.3661h-1.396v-1.4745h3.4391v-2.5441l-5.4135-0.005z"/>
					<path d="m7.7927 3.4504-0.50715-0.176-0.48387-1.2366-0.76115 0.04-0.34718 1.2787-0.4859 0.23269-1.2119-0.53015-0.51188 0.56882 0.65892 1.1485-0.18006 0.50567-1.2366 0.48387 0.044064 0.76263 1.2787 0.34718 0.23269 0.4859-0.53421 1.2104 0.56882 0.51188 1.1485-0.65891 0.50973 0.18155 0.4798 1.2351 0.7667-0.04258 0.34311-1.2802 0.4859-0.23269 1.2145 0.5357 0.51188-0.56882-0.65891-1.1485 0.17748-0.51122 1.2351-0.4798-0.03851-0.76521-1.2802-0.34311-0.23269-0.4859 0.53163-1.216-0.56881-0.51184zm-0.5715 1.2244 0.23576 0.13679 0.20426 0.18519 0.16353 0.22101 0.11763 0.24572 0.06916 0.26489 0.01146 0.27146-0.03921 0.27139-0.08948 0.25764-0.14234 0.23834-0.17964 0.20167-0.22101 0.16353-0.24572 0.11763-0.26489 0.06916-0.27295 0.01553-0.2719-0.04-0.2576-0.089-0.2383-0.143-0.2002-0.183-0.165-0.217-0.1177-0.246-0.0676-0.269-0.0156-0.273 0.039206-0.2714 0.089484-0.25764 0.14085-0.23427 0.18113-0.20574 0.22101-0.16352 0.24572-0.11763 0.26895-0.06768 0.27147-0.01146 0.27139 0.03921 0.25764 0.08948z"/>
			</g>
		</g>
	</g>
<g id="ViewGroupe001" transform="rotate(0.0,29.0,100.0) translate(29.0,100.0) scale(1.0,-1.0)"><path id="Shape2DView_nwe0000"  d="M 1.05471187339e-14 37.5 L 6.10622663544e-15 17.5 " stroke="#000000" stroke-width="0.35 px" style="stroke-width:0.35;stroke-miterlimit:4;stroke-dasharray:none;fill:none;fill-rule: evenodd "/>
<path id="Shape2DView_nwe0001"  d="M 50.0 37.5 L 7.1054273576e-15 37.5 " stroke="#000000" stroke-width="0.35 px" style="stroke-width:0.35;stroke-miterlimit:4;stroke-dasharray:none;fill:none;fill-rule: evenodd "/>
<path id="Shape2DView_nwe0002"  d="M 6.10622663544e-15 17.5 L 10.0 17.5 " stroke="#000000" stroke-width="0.35 px" style="stroke-width:0.35;stroke-miterlimit:4;stroke-dasharray:none;fill:none;fill-rule: evenodd "/>
<path id="Shape2DView_nwe0003"  d="M 50.0 27.5 L 50.0 37.5 " stroke="#000000" stroke-width="0.35 px" style="stroke-width:0.35;stroke-miterlimit:4;stroke-dasharray:none;fill:none;fill-rule: evenodd "/>
<path id="Shape2DView_nwe0004"  d="M 10.0 17.5 L 10.0 -17.5 " stroke="#000000" stroke-width="0.35 px" style="stroke-width:0.35;stroke-miterlimit:4;stroke-dasharray:none;fill:none;fill-rule: evenodd "/>
<path id="Shape2DView_nwe0005"  d="M 100.0 27.5 L 50.0 27.5 " stroke="#000000" stroke-width="0.35 px" style="stroke-width:0.35;stroke-miterlimit:4;stroke-dasharray:none;fill:none;fill-rule: evenodd "/>
<path id="Shape2DView_nwe0006"  d="M 10.0 -17.5 L -1.7763568394e-15 -17.5 " stroke="#000000" stroke-width="0.35 px" style="stroke-width:0.35;stroke-miterlimit:4;stroke-dasharray:none;fill:none;fill-rule: evenodd "/>
<path id="Shape2DView_nwe0007"  d="M 100.0 37.5 L 100.0 27.5 " stroke="#000000" stroke-width="0.35 px" style="stroke-width:0.35;stroke-miterlimit:4;stroke-dasharray:none;fill:none;fill-rule: evenodd "/>
<path id="Shape2DView_nwe0008"  d="M -1.66533453694e-15 -17.5 L -6.10622663544e-15 -37.5 " stroke="#000000" stroke-width="0.35 px" style="stroke-width:0.35;stroke-miterlimit:4;stroke-dasharray:none;fill:none;fill-rule: evenodd "/>
<path id="Shape2DView_nwe0009"  d="M 150.0 37.5 L 100.0 37.5 " stroke="#000000" stroke-width="0.35 px" style="stroke-width:0.35;stroke-miterlimit:4;stroke-dasharray:none;fill:none;fill-rule: evenodd "/>
<path id="Shape2DView_nwe0010"  d="M -6.10622663544e-15 -37.5 L 50.0 -37.5 " stroke="#000000" stroke-width="0.35 px" style="stroke-width:0.35;stroke-miterlimit:4;stroke-dasharray:none;fill:none;fill-rule: evenodd "/>
<path id="Shape2DView_nwe0011"  d="M 150.0 27.5 L 150.0 37.5 " stroke="#000000" stroke-width="0.35 px" style="stroke-width:0.35;stroke-miterlimit:4;stroke-dasharray:none;fill:none;fill-rule: evenodd "/>
<path id="Shape2DView_nwe0012"  d="M 50.0 -37.5 L 50.0 -27.5 " stroke="#000000" stroke-width="0.35 px" style="stroke-width:0.35;stroke-miterlimit:4;stroke-dasharray:none;fill:none;fill-rule: evenodd "/>
<path id="Shape2DView_nwe0013"  d="M 200.0 27.5 L 150.0 27.5 " stroke="#000000" stroke-width="0.35 px" style="stroke-width:0.35;stroke-miterlimit:4;stroke-dasharray:none;fill:none;fill-rule: evenodd "/>
<path id="Shape2DView_nwe0014"  d="M 50.0 -27.5 L 100.0 -27.5 " stroke="#000000" stroke-width="0.35 px" style="stroke-width:0.35;stroke-miterlimit:4;stroke-dasharray:none;fill:none;fill-rule: evenodd "/>
<path id="Shape2DView_nwe0015"  d="M 200.0 37.5 L 200.0 27.5 " stroke="#000000" stroke-width="0.35 px" style="stroke-width:0.35;stroke-miterlimit:4;stroke-dasharray:none;fill:none;fill-rule: evenodd "/>
<path id="Shape2DView_nwe0016"  d="M 100.0 -27.5 L 100.0 -37.5 " stroke="#000000" stroke-width="0.35 px" style="stroke-width:0.35;stroke-miterlimit:4;stroke-dasharray:none;fill:none;fill-rule: evenodd "/>
<path id="Shape2DView_nwe0017"  d="M 240.0 37.5 L 200.0 37.5 " stroke="#000000" stroke-width="0.35 px" style="stroke-width:0.35;stroke-miterlimit:4;stroke-dasharray:none;fill:none;fill-rule: evenodd "/>
<path id="Shape2DView_nwe0018"  d="M 100.0 -37.5 L 150.0 -37.5 " stroke="#000000" stroke-width="0.35 px" style="stroke-width:0.35;stroke-miterlimit:4;stroke-dasharray:none;fill:none;fill-rule: evenodd "/>
<path id="Shape2DView_nwe0019"  d="M 240.0 17.5 L 240.0 37.5 " stroke="#000000" stroke-width="0.35 px" style="stroke-width:0.35;stroke-miterlimit:4;stroke-dasharray:none;fill:none;fill-rule: evenodd "/>
<path id="Shape2DView_nwe0020"  d="M 150.0 -37.5 L 150.0 -27.5 " stroke="#000000" stroke-width="0.35 px" style="stroke-width:0.35;stroke-miterlimit:4;stroke-dasharray:none;fill:none;fill-rule: evenodd "/>
<path id="Shape2DView_nwe0021"  d="M 250.0 17.5 L 240.0 17.5 " stroke="#000000" stroke-width="0.35 px" style="stroke-width:0.35;stroke-miterlimit:4;stroke-dasharray:none;fill:none;fill-rule: evenodd "/>
<path id="Shape2DView_nwe0022"  d="M 150.0 -27.5 L 200.0 -27.5 " stroke="#000000" stroke-width="0.35 px" style="stroke-width:0.35;stroke-miterlimit:4;stroke-dasharray:none;fill:none;fill-rule: evenodd "/>
<path id="Shape2DView_nwe0023"  d="M 250.0 -17.5 L 250.0 17.5 " stroke="#000000" stroke-width="0.35 px" style="stroke-width:0.35;stroke-miterlimit:4;stroke-dasharray:none;fill:none;fill-rule: evenodd "/>
<path id="Shape2DView_nwe0024"  d="M 200.0 -27.5 L 200.0 -37.5 " stroke="#000000" stroke-width="0.35 px" style="stroke-width:0.35;stroke-miterlimit:4;stroke-dasharray:none;fill:none;fill-rule: evenodd "/>
<path id="Shape2DView_nwe0025"  d="M 240.0 -17.5 L 250.0 -17.5 " stroke="#000000" stroke-width="0.35 px" style="stroke-width:0.35;stroke-miterlimit:4;stroke-dasharray:none;fill:none;fill-rule: evenodd "/>
<path id="Shape2DView_nwe0026"  d="M 200.0 -37.5 L 240.0 -37.5 " stroke="#000000" stroke-width="0.35 px" style="stroke-width:0.35;stroke-miterlimit:4;stroke-dasharray:none;fill:none;fill-rule: evenodd "/>
<path id="Shape2DView_nwe0027"  d="M 240.0 -37.5 L 240.0 -17.5 " stroke="#000000" stroke-width="0.35 px" style="stroke-width:0.35;stroke-miterlimit:4;stroke-dasharray:none;fill:none;fill-rule: evenodd "/>
<circle cx="100.0" cy="2.34193081237e-30" r="1.5" stroke="#000000" stroke-width="0.35 px" style="stroke-width:0.35;stroke-miterlimit:4;stroke-dasharray:none;fill:none"/>
<circle cx="50.0" cy="1.10933564797e-30" r="1.5" stroke="#000000" stroke-width="0.35 px" style="stroke-width:0.35;stroke-miterlimit:4;stroke-dasharray:none;fill:none"/>
<path d="M -1.05471187339e-14 39.0 L -1.05471187339e-14 46.0 L 50.0 46.0 L 50.0 39.0" fill="none" stroke="#000000" stroke-width="0.35 px" style="stroke-width:0.35;stroke-miterlimit:4;stroke-dasharray:none" freecad:basepoint1="-1.05471187339e-14 39.0" freecad:basepoint2="50.0 39.0" freecad:dimpoint="-1.05471187339e-14 46.0"/>
<circle cx="-1.05471187339e-14" cy="46.0" r="0.133333333333" fill="#000000" stroke="none" style="stroke-miterlimit:4;stroke-dasharray:none" freecad:skip="1"/>
<circle cx="50.0" cy="46.0" r="0.133333333333" fill="#000000" stroke="none" style="stroke-miterlimit:4;stroke-dasharray:none" freecad:skip="1"/>
<text fill="#000000" font-size="6.0" style="text-anchor:middle;text-align:center;font-family:" transform="rotate(-0.0,25.0,47.0) translate(25.0,47.0) scale(1,-1) " freecad:skip="1">
50,00 mm</text>
<path d="M 50.0 39.0 L 50.0 46.0 L 100.0 46.0 L 100.0 39.0" fill="none" stroke="#000000" stroke-width="0.35 px" style="stroke-width:0.35;stroke-miterlimit:4;stroke-dasharray:none" freecad:basepoint1="50.0 39.0" freecad:basepoint2="100.0 39.0" freecad:dimpoint="50.0 46.0"/>
<circle cx="50.0" cy="46.0" r="0.133333333333" fill="#000000" stroke="none" style="stroke-miterlimit:4;stroke-dasharray:none" freecad:skip="1"/>
<circle cx="100.0" cy="46.0" r="0.133333333333" fill="#000000" stroke="none" style="stroke-miterlimit:4;stroke-dasharray:none" freecad:skip="1"/>
<text fill="#000000" font-size="6.0" style="text-anchor:middle;text-align:center;font-family:" transform="rotate(-0.0,75.0,47.0) translate(75.0,47.0) scale(1,-1) " freecad:skip="1">
50,00 mm</text>
<path d="M -3.0 17.5 L -10.0 17.5 L -10.0 37.5 L -3.0 37.5" fill="none" stroke="#000000" stroke-width="0.35 px" style="stroke-width:0.35;stroke-miterlimit:4;stroke-dasharray:none" freecad:basepoint1="-3.0 17.5" freecad:basepoint2="-3.0 37.5" freecad:dimpoint="-10.0 17.5"/>
<circle cx="-10.0" cy="17.5" r="0.133333333333" fill="#000000" stroke="none" style="stroke-miterlimit:4;stroke-dasharray:none" freecad:skip="1"/>
<circle cx="-10.0" cy="37.5" r="0.133333333333" fill="#000000" stroke="none" style="stroke-miterlimit:4;stroke-dasharray:none" freecad:skip="1"/>
<text fill="#000000" font-size="6.0" style="text-anchor:middle;text-align:center;font-family:" transform="rotate(90.0,-11.0,27.5) translate(-11.0,27.5) scale(1,-1) " freecad:skip="1">
20,00 mm</text>
<path d="M 200.0 39.0 L 200.0 46.0 L 240.0 46.0 L 240.0 39.0" fill="none" stroke="#000000" stroke-width="0.35 px" style="stroke-width:0.35;stroke-miterlimit:4;stroke-dasharray:none" freecad:basepoint1="200.0 39.0" freecad:basepoint2="240.0 39.0" freecad:dimpoint="200.0 46.0"/>
<circle cx="200.0" cy="46.0" r="0.133333333333" fill="#000000" stroke="none" style="stroke-miterlimit:4;stroke-dasharray:none" freecad:skip="1"/>
<circle cx="240.0" cy="46.0" r="0.133333333333" fill="#000000" stroke="none" style="stroke-miterlimit:4;stroke-dasharray:none" freecad:skip="1"/>
<text fill="#000000" font-size="6.0" style="text-anchor:middle;text-align:center;font-family:" transform="rotate(-0.0,220.0,47.0) translate(220.0,47.0) scale(1,-1) " freecad:skip="1">
40,00 mm</text>
<path d="M 251.0 37.5 L 258.0 37.5 L 258.0 17.5 L 251.0 17.5" fill="none" stroke="#000000" stroke-width="0.35 px" style="stroke-width:0.35;stroke-miterlimit:4;stroke-dasharray:none" freecad:basepoint1="251.0 37.5" freecad:basepoint2="251.0 17.5" freecad:dimpoint="258.0 37.5"/>
<circle cx="258.0" cy="37.5" r="0.133333333333" fill="#000000" stroke="none" style="stroke-miterlimit:4;stroke-dasharray:none" freecad:skip="1"/>
<circle cx="258.0" cy="17.5" r="0.133333333333" fill="#000000" stroke="none" style="stroke-miterlimit:4;stroke-dasharray:none" freecad:skip="1"/>
<text fill="#000000" font-size="6.0" style="text-anchor:middle;text-align:center;font-family:" transform="rotate(-90.0,259.0,27.5) translate(259.0,27.5) scale(1,-1) " freecad:skip="1">
20,00 mm</text>
<path d="M 251.0 17.5 L 258.0 17.5 L 258.0 -17.5 L 251.0 -17.5" fill="none" stroke="#000000" stroke-width="0.35 px" style="stroke-width:0.35;stroke-miterlimit:4;stroke-dasharray:none" freecad:basepoint1="251.0 17.5" freecad:basepoint2="251.0 -17.5" freecad:dimpoint="258.0 17.5"/>
<circle cx="258.0" cy="17.5" r="0.133333333333" fill="#000000" stroke="none" style="stroke-miterlimit:4;stroke-dasharray:none" freecad:skip="1"/>
<circle cx="258.0" cy="-17.5" r="0.133333333333" fill="#000000" stroke="none" style="stroke-miterlimit:4;stroke-dasharray:none" freecad:skip="1"/>
<text fill="#000000" font-size="6.0" style="text-anchor:middle;text-align:center;font-family:" transform="rotate(-90.0,259.0,0.0) translate(259.0,0.0) scale(1,-1) " freecad:skip="1">
35,00 mm</text>
<path d="M 48.5 -2.75545529808e-16 L 48.5 5.0 L 51.5 5.0 L 51.5 -1.12819681272e-15" fill="none" stroke="#000000" stroke-width="0.35 px" style="stroke-width:0.35;stroke-miterlimit:4;stroke-dasharray:none" freecad:basepoint1="48.5 -2.75545529808e-16" freecad:basepoint2="51.5 -1.12819681272e-15" freecad:dimpoint="48.5 5.0"/>
<circle cx="48.5" cy="5.0" r="0.133333333333" fill="#000000" stroke="none" style="stroke-miterlimit:4;stroke-dasharray:none" freecad:skip="1"/>
<circle cx="51.5" cy="5.0" r="0.133333333333" fill="#000000" stroke="none" style="stroke-miterlimit:4;stroke-dasharray:none" freecad:skip="1"/>
<text fill="#000000" font-size="6.0" style="text-anchor:middle;text-align:center;font-family:" transform="rotate(-0.0,50.0,6.0) translate(50.0,6.0) scale(1,-1) " freecad:skip="1">
3,00 mm</text>
<path d="M 98.5 -2.75545529808e-16 L 98.5 5.0 L 101.5 5.0 L 101.5 -9.18485099361e-17" fill="none" stroke="#000000" stroke-width="0.35 px" style="stroke-width:0.35;stroke-miterlimit:4;stroke-dasharray:none" freecad:basepoint1="98.5 -2.75545529808e-16" freecad:basepoint2="101.5 -9.18485099361e-17" freecad:dimpoint="98.5 5.0"/>
<circle cx="98.5" cy="5.0" r="0.133333333333" fill="#000000" stroke="none" style="stroke-miterlimit:4;stroke-dasharray:none" freecad:skip="1"/>
<circle cx="101.5" cy="5.0" r="0.133333333333" fill="#000000" stroke="none" style="stroke-miterlimit:4;stroke-dasharray:none" freecad:skip="1"/>
<text fill="#000000" font-size="6.0" style="text-anchor:middle;text-align:center;font-family:" transform="rotate(-0.0,100.0,6.0) translate(100.0,6.0) scale(1,-1) " freecad:skip="1">
3,00 mm</text>
<path d="M -3.0 -17.5 L -10.0 -17.5 L -10.0 17.5 L -3.0 17.5" fill="none" stroke="#000000" stroke-width="0.35 px" style="stroke-width:0.35;stroke-miterlimit:4;stroke-dasharray:none" freecad:basepoint1="-3.0 -17.5" freecad:basepoint2="-3.0 17.5" freecad:dimpoint="-10.0 -17.5"/>
<circle cx="-10.0" cy="-17.5" r="0.133333333333" fill="#000000" stroke="none" style="stroke-miterlimit:4;stroke-dasharray:none" freecad:skip="1"/>
<circle cx="-10.0" cy="17.5" r="0.133333333333" fill="#000000" stroke="none" style="stroke-miterlimit:4;stroke-dasharray:none" freecad:skip="1"/>
<text fill="#000000" font-size="6.0" style="text-anchor:middle;text-align:center;font-family:" transform="rotate(90.0,-11.0,0.0) translate(-11.0,0.0) scale(1,-1) " freecad:skip="1">
35,00 mm</text>
<path d="M 10.0 -3.0 L 10.0 -10.0 L 50.0 -10.0 L 50.0 -3.0" fill="none" stroke="#000000" stroke-width="0.35 px" style="stroke-width:0.35;stroke-miterlimit:4;stroke-dasharray:none" freecad:basepoint1="10.0 -3.0" freecad:basepoint2="50.0 -3.0" freecad:dimpoint="10.0 -10.0"/>
<circle cx="10.0" cy="-10.0" r="0.133333333333" fill="#000000" stroke="none" style="stroke-miterlimit:4;stroke-dasharray:none" freecad:skip="1"/>
<circle cx="50.0" cy="-10.0" r="0.133333333333" fill="#000000" stroke="none" style="stroke-miterlimit:4;stroke-dasharray:none" freecad:skip="1"/>
<text fill="#000000" font-size="6.0" style="text-anchor:middle;text-align:center;font-family:" transform="rotate(0.0,30.0,-9.0) translate(30.0,-9.0) scale(1,-1) " freecad:skip="1">
40,00 mm</text>
<path d="M 50.0 -3.0 L 50.0 -10.0 L 100.0 -10.0 L 100.0 -3.0" fill="none" stroke="#000000" stroke-width="0.35 px" style="stroke-width:0.35;stroke-miterlimit:4;stroke-dasharray:none" freecad:basepoint1="50.0 -3.0" freecad:basepoint2="100.0 -3.0" freecad:dimpoint="50.0 -10.0"/>
<circle cx="50.0" cy="-10.0" r="0.133333333333" fill="#000000" stroke="none" style="stroke-miterlimit:4;stroke-dasharray:none" freecad:skip="1"/>
<circle cx="100.0" cy="-10.0" r="0.133333333333" fill="#000000" stroke="none" style="stroke-miterlimit:4;stroke-dasharray:none" freecad:skip="1"/>
<text fill="#000000" font-size="6.0" style="text-anchor:middle;text-align:center;font-family:" transform="rotate(-0.0,75.0,-9.0) translate(75.0,-9.0) scale(1,-1) " freecad:skip="1">
50,00 mm</text>
</g>


</svg>

